<?xml version="1.0" standalone="no"?>
<svg xmlns:xlink="http://www.w3.org/1999/xlink" id="wave" style="transform:rotate(0deg); transition: 0.3s" viewBox="0 0 1440 260" version="1.1" xmlns="http://www.w3.org/2000/svg"><defs><linearGradient id="sw-gradient-0" x1="0" x2="0" y1="1" y2="0"><stop stop-color="rgba(237, 221, 215, 1)" offset="0%"/><stop stop-color="rgba(237, 221, 215, 1)" offset="100%"/></linearGradient></defs><path style="transform:translate(0, 0px); opacity:1" fill="url(#sw-gradient-0)" d="M0,208L48,199.3C96,191,192,173,288,151.7C384,130,480,104,576,108.3C672,113,768,147,864,164.7C960,182,1056,182,1152,156C1248,130,1344,78,1440,69.3C1536,61,1632,95,1728,117C1824,139,1920,147,2016,130C2112,113,2208,69,2304,60.7C2400,52,2496,78,2592,86.7C2688,95,2784,87,2880,95.3C2976,104,3072,130,3168,121.3C3264,113,3360,69,3456,43.3C3552,17,3648,9,3744,30.3C3840,52,3936,104,4032,108.3C4128,113,4224,69,4320,69.3C4416,69,4512,113,4608,130C4704,147,4800,139,4896,130C4992,121,5088,113,5184,91C5280,69,5376,35,5472,21.7C5568,9,5664,17,5760,39C5856,61,5952,95,6048,125.7C6144,156,6240,182,6336,199.3C6432,217,6528,225,6624,199.3C6720,173,6816,113,6864,82.3L6912,52L6912,260L6864,260C6816,260,6720,260,6624,260C6528,260,6432,260,6336,260C6240,260,6144,260,6048,260C5952,260,5856,260,5760,260C5664,260,5568,260,5472,260C5376,260,5280,260,5184,260C5088,260,4992,260,4896,260C4800,260,4704,260,4608,260C4512,260,4416,260,4320,260C4224,260,4128,260,4032,260C3936,260,3840,260,3744,260C3648,260,3552,260,3456,260C3360,260,3264,260,3168,260C3072,260,2976,260,2880,260C2784,260,2688,260,2592,260C2496,260,2400,260,2304,260C2208,260,2112,260,2016,260C1920,260,1824,260,1728,260C1632,260,1536,260,1440,260C1344,260,1248,260,1152,260C1056,260,960,260,864,260C768,260,672,260,576,260C480,260,384,260,288,260C192,260,96,260,48,260L0,260Z"/><defs><linearGradient id="sw-gradient-1" x1="0" x2="0" y1="1" y2="0"><stop stop-color="rgba(221, 237, 224, 1)" offset="0%"/><stop stop-color="rgba(221, 237, 224, 1)" offset="100%"/></linearGradient></defs><path style="transform:translate(0, 50px); opacity:0.9" fill="url(#sw-gradient-1)" d="M0,78L48,78C96,78,192,78,288,91C384,104,480,130,576,143C672,156,768,156,864,130C960,104,1056,52,1152,56.3C1248,61,1344,121,1440,143C1536,165,1632,147,1728,143C1824,139,1920,147,2016,156C2112,165,2208,173,2304,173.3C2400,173,2496,165,2592,164.7C2688,165,2784,173,2880,164.7C2976,156,3072,130,3168,138.7C3264,147,3360,191,3456,186.3C3552,182,3648,130,3744,112.7C3840,95,3936,113,4032,99.7C4128,87,4224,43,4320,43.3C4416,43,4512,87,4608,91C4704,95,4800,61,4896,73.7C4992,87,5088,147,5184,164.7C5280,182,5376,156,5472,125.7C5568,95,5664,61,5760,52C5856,43,5952,61,6048,73.7C6144,87,6240,95,6336,108.3C6432,121,6528,139,6624,125.7C6720,113,6816,69,6864,47.7L6912,26L6912,260L6864,260C6816,260,6720,260,6624,260C6528,260,6432,260,6336,260C6240,260,6144,260,6048,260C5952,260,5856,260,5760,260C5664,260,5568,260,5472,260C5376,260,5280,260,5184,260C5088,260,4992,260,4896,260C4800,260,4704,260,4608,260C4512,260,4416,260,4320,260C4224,260,4128,260,4032,260C3936,260,3840,260,3744,260C3648,260,3552,260,3456,260C3360,260,3264,260,3168,260C3072,260,2976,260,2880,260C2784,260,2688,260,2592,260C2496,260,2400,260,2304,260C2208,260,2112,260,2016,260C1920,260,1824,260,1728,260C1632,260,1536,260,1440,260C1344,260,1248,260,1152,260C1056,260,960,260,864,260C768,260,672,260,576,260C480,260,384,260,288,260C192,260,96,260,48,260L0,260Z"/></svg>