<?xml version="1.0" standalone="no"?>
<svg xmlns:xlink="http://www.w3.org/1999/xlink" id="wave" style="transform:rotate(180deg); transition: 0.3s" viewBox="0 0 1440 260" version="1.1" xmlns="http://www.w3.org/2000/svg"><defs><linearGradient id="sw-gradient-0" x1="0" x2="0" y1="1" y2="0"><stop stop-color="rgba(224, 221, 237, 1)" offset="0%"/><stop stop-color="rgba(224, 221, 237, 1)" offset="100%"/></linearGradient></defs><path style="transform:translate(0, 0px); opacity:1" fill="url(#sw-gradient-0)" d="M0,52L48,82.3C96,113,192,173,288,173.3C384,173,480,113,576,91C672,69,768,87,864,108.3C960,130,1056,156,1152,160.3C1248,165,1344,147,1440,156C1536,165,1632,199,1728,195C1824,191,1920,147,2016,112.7C2112,78,2208,52,2304,43.3C2400,35,2496,43,2592,69.3C2688,95,2784,139,2880,143C2976,147,3072,113,3168,99.7C3264,87,3360,95,3456,121.3C3552,147,3648,191,3744,212.3C3840,234,3936,234,4032,225.3C4128,217,4224,199,4320,182C4416,165,4512,147,4608,134.3C4704,121,4800,113,4896,108.3C4992,104,5088,104,5184,121.3C5280,139,5376,173,5472,156C5568,139,5664,69,5760,56.3C5856,43,5952,87,6048,104C6144,121,6240,113,6336,117C6432,121,6528,139,6624,151.7C6720,165,6816,173,6864,177.7L6912,182L6912,260L6864,260C6816,260,6720,260,6624,260C6528,260,6432,260,6336,260C6240,260,6144,260,6048,260C5952,260,5856,260,5760,260C5664,260,5568,260,5472,260C5376,260,5280,260,5184,260C5088,260,4992,260,4896,260C4800,260,4704,260,4608,260C4512,260,4416,260,4320,260C4224,260,4128,260,4032,260C3936,260,3840,260,3744,260C3648,260,3552,260,3456,260C3360,260,3264,260,3168,260C3072,260,2976,260,2880,260C2784,260,2688,260,2592,260C2496,260,2400,260,2304,260C2208,260,2112,260,2016,260C1920,260,1824,260,1728,260C1632,260,1536,260,1440,260C1344,260,1248,260,1152,260C1056,260,960,260,864,260C768,260,672,260,576,260C480,260,384,260,288,260C192,260,96,260,48,260L0,260Z"/><defs><linearGradient id="sw-gradient-1" x1="0" x2="0" y1="1" y2="0"><stop stop-color="rgba(221, 237, 224, 1)" offset="0%"/><stop stop-color="rgba(221, 237, 224, 1)" offset="100%"/></linearGradient></defs><path style="transform:translate(0, 50px); opacity:0.9" fill="url(#sw-gradient-1)" d="M0,78L48,65C96,52,192,26,288,34.7C384,43,480,87,576,104C672,121,768,113,864,117C960,121,1056,139,1152,147.3C1248,156,1344,156,1440,160.3C1536,165,1632,173,1728,147.3C1824,121,1920,61,2016,69.3C2112,78,2208,156,2304,169C2400,182,2496,130,2592,108.3C2688,87,2784,95,2880,86.7C2976,78,3072,52,3168,47.7C3264,43,3360,61,3456,69.3C3552,78,3648,78,3744,82.3C3840,87,3936,95,4032,99.7C4128,104,4224,104,4320,117C4416,130,4512,156,4608,151.7C4704,147,4800,113,4896,104C4992,95,5088,113,5184,138.7C5280,165,5376,199,5472,190.7C5568,182,5664,130,5760,117C5856,104,5952,130,6048,151.7C6144,173,6240,191,6336,186.3C6432,182,6528,156,6624,160.3C6720,165,6816,199,6864,216.7L6912,234L6912,260L6864,260C6816,260,6720,260,6624,260C6528,260,6432,260,6336,260C6240,260,6144,260,6048,260C5952,260,5856,260,5760,260C5664,260,5568,260,5472,260C5376,260,5280,260,5184,260C5088,260,4992,260,4896,260C4800,260,4704,260,4608,260C4512,260,4416,260,4320,260C4224,260,4128,260,4032,260C3936,260,3840,260,3744,260C3648,260,3552,260,3456,260C3360,260,3264,260,3168,260C3072,260,2976,260,2880,260C2784,260,2688,260,2592,260C2496,260,2400,260,2304,260C2208,260,2112,260,2016,260C1920,260,1824,260,1728,260C1632,260,1536,260,1440,260C1344,260,1248,260,1152,260C1056,260,960,260,864,260C768,260,672,260,576,260C480,260,384,260,288,260C192,260,96,260,48,260L0,260Z"/></svg>