<svg xmlns="http://www.w3.org/2000/svg" xml:space="preserve" width="2000" height="192" data-id="lg_OnpSHjnPfmoQGpmqoX" data-version="1" viewBox="0 0 2000 192"><g data-padding="20"><g transform="translate(10 3.416)scale(.96441)"><rect width="379.877" height="192.1" x="436.218" y="-400.33" fill="none" rx="0" ry="0" transform="translate(490.55 400.28)"/><path fill="#94c3d2" d="M998.976 29.03q0 6.31-4.31 11.46-4.32 5.14-10.54 9.21-6.23 4.07-13.04 7.06-6.8 2.98-11.78 4.98 0 3.48-.17 7.13-.16 3.66-.5 7.31 5.32-2.66 11.96-4.98 6.64-2.33 12.61-2.33 4.82 0 7.89 2 3.07 1.99 3.07 6.97 0 5.48-3.9 9.79-3.9 4.32-9.38 7.64t-11.46 5.65q-5.97 2.32-10.12 3.65 0 5.48-.17 10.87-.16 5.4-.5 10.71-.16 2.66-.58 6.64-.41 3.98-1.66 7.72-1.24 3.74-3.57 6.47-2.32 2.74-5.97 2.74-3.49 0-5.98-3.4t-4.23-8.72q-1.75-5.31-2.83-11.87-1.08-6.55-1.66-12.86t-.66-11.62q-.08-5.32-.08-8.14 0-2.16.08-6.39t.17-9.38q.08-5.15.33-10.79t.58-10.71q.33-5.06.91-8.96t1.41-5.73q1.83-3.65 8.72-7.22t15.36-6.31q8.46-2.74 16.51-4.48 8.06-1.75 12.37-1.75 1.99 0 3.9.25t3.57 1.08 2.66 2.33q.99 1.49.99 3.98m89.83 61.6q0 6.81-.66 14.03-.67 7.22-2.33 14.03t-4.56 12.87q-2.91 6.05-7.39 10.62t-10.79 7.22q-6.31 2.66-14.78 2.66-12.45 0-21.66-5.81-9.22-5.81-15.36-14.86t-9.13-20.25q-2.99-11.21-2.99-22.17v-2.16q0-.99.17-1.82.16-3.49.58-9.47.41-5.97 1.41-12.78 1-6.8 2.57-13.94 1.58-7.14 4.15-12.79 2.58-5.64 6.23-9.29 3.65-3.66 8.63-3.66 3.65 0 6.14 2.16t4.07 5.4q1.58 3.23 2.24 6.8.67 3.57.67 6.56 0 4.48-.92 9.05-.91 4.57-1.74 9.05-1.33 7.14-2.16 14.27-.83 7.14-.83 14.61 0 3.82.42 9.3.41 5.48 2.07 10.54 1.66 5.07 4.73 8.64t8.39 3.57q5.14 0 8.22-3.49 3.07-3.49 4.56-8.3 1.49-4.82 1.91-10.13.41-5.31.41-9.13 0-10.96-1.82-21.66-1.83-10.71-4.82-21.34-.83-2.82-1.41-5.64t-.58-5.65q0-4.65 2.74-8.13 2.74-3.49 7.72-3.49 4.15 0 7.72 3.24t6.39 8.47 4.9 11.7q2.07 6.48 3.57 12.87 1.49 6.39 2.24 12.2t.91 9.46q.17 1.66.17 3.24Zm65.24-58.28q0 3.82-2.4 6.64-2.41 2.82-5.73 4.65-2.99 1.83-6.14 3.9-3.16 2.08-5.81 4.65-2.66 2.57-4.32 5.73-1.66 3.15-1.66 7.14 0 3.48 1.66 6.3 1.66 2.83 4.07 5.57 2.4 2.74 5.31 5.64 2.9 2.91 5.31 6.48 2.41 3.56 4.07 8.05 1.66 4.48 1.66 10.46 0 4.15-1.74 9.38-1.75 5.23-4.74 10.54-2.98 5.31-7.05 10.29t-8.63 8.88q-4.57 3.9-9.55 6.31t-9.63 2.41q-5.15 0-9.13-2.82-3.98-2.83-3.98-8.47 0-3.82 1.82-7.06 1.83-3.23 4.48-6.22 2.66-2.99 5.9-5.81t5.89-5.65q2.66-2.82 4.48-5.89 1.83-3.07 1.83-6.56 0-4.81-3.4-9.88-3.41-5.06-7.56-10.46-4.15-5.39-7.55-11.04-3.4-5.64-3.4-11.45 0-7.14 3.81-15.02 3.82-7.89 9.8-14.45t13.45-10.87q7.47-4.32 14.77-4.32 5.81 0 9.96 3.49 4.15 3.48 4.15 9.46m85.5 19.43v2.16q0 13.78-.66 27.64-.67 13.87-1.66 27.65-.17 2.49-.33 6.72-.17 4.23-.67 9.13t-1.33 9.88-2.57 9.05q-1.74 4.06-4.48 6.64-2.74 2.57-6.73 2.57-3.48 0-6.22-1.49-2.74-1.5-4.57-3.91-1.82-2.4-2.82-5.47-1-3.08-1-6.4 0-5.47.34-11.04.33-5.56.99-11.04l-16.43 1.66q-.5 4.32-1.08 10.38t-2.33 11.62q-1.74 5.56-5.23 9.55-3.48 3.98-9.62 3.98-3.82 0-6.31-1.74t-3.99-4.48q-1.49-2.74-2.16-6.06-.66-3.32-.66-6.31 0-9.96.83-19.84t1.16-19.84q.33-10.46.25-21t.25-21.17q.17-3.48.25-8.13t1.16-8.72 3.65-6.89q2.58-2.82 7.72-2.82 7.14 0 10.79 3.74 3.66 3.73 5.15 9.29 1.5 5.56 1.5 11.79v11.21q0 6.64-.34 13.03-.33 6.39-.66 12.86l17.76-2.65q.17-8.14.33-16.11.17-7.96.67-15.93.16-3.82.33-8.14.17-4.31 1.33-7.97 1.16-3.65 3.9-6.06 2.74-2.4 8.22-2.4 4.65 0 7.55 2.65 2.91 2.66 4.65 6.48t2.41 8.13q.66 4.32.66 7.8m68.39-15.6q0 3.15-1.41 5.64t-3.74 4.24q-2.32 1.74-5.14 2.9-2.83 1.16-5.48 1.66-.33 18.76-1.41 36.19-1.08 17.44-3.41 36.03h1q2.66 0 5.23.58t4.65 1.99q2.07 1.41 3.32 3.49 1.24 2.07 1.24 5.06 0 3.82-2.4 6.64-2.41 2.83-6.31 4.82t-8.72 3.32q-4.81 1.33-9.63 2.07-4.81.75-9.13 1.08-4.31.33-6.97.33-1.99 0-4.9-.16-2.9-.17-5.48-1-2.57-.83-4.4-2.49-1.82-1.66-1.82-4.48 0-3.49 1.41-6.23t3.73-4.89q2.33-2.16 5.23-3.49 2.91-1.33 5.9-1.99 1.16-9.13 2.16-18.18.99-9.05 1.32-18.35l.67-18.67q.33-9.22.66-18.51-1.16.16-2.16.25-.99.08-1.82.08-2.33 0-4.98-.5-2.66-.5-4.98-1.74-2.33-1.25-3.9-3.07-1.58-1.83-1.58-4.65 0-5.65 4.73-9.3t11.29-5.64q6.56-2 13.36-2.74 6.81-.75 10.96-.75 2.32 0 6.14.33t7.56 1.5q3.73 1.16 6.47 3.15t2.74 5.48"/><rect width="119.453" height="119.453" x="786.431" y="-470.915" fill="#b69e03" rx="0" ry="0" transform="matrix(.74 0 0 .74 195.95 389.83)"/><path fill="#efefef" d="M783.156 9.35a37 37 0 1 0 0 74 37 37 0 1 0 0-74"/><path fill="#efefef" d="M858.836 9.35a37 37 0 1 0 0 74 37 37 0 1 0 0-74m-75.68 75.43a37 37 0 1 0 0 74 37 37 0 1 0 0-74"/><path fill="#efefef" d="M858.836 84.78a37 37 0 1 0 0 74 37 37 0 1 0 0-74"/></g><path fill="transparent" stroke="transparent" d="M719.497 0h562v192h-562z"/></g></svg>