<?xml version="1.0" standalone="no"?>
<svg xmlns:xlink="http://www.w3.org/1999/xlink" id="wave" style="transform:rotate(0deg); transition: 0.3s" viewBox="0 0 1440 300" version="1.1" xmlns="http://www.w3.org/2000/svg"><defs><linearGradient id="sw-gradient-0" x1="0" x2="0" y1="1" y2="0"><stop stop-color="rgba(159, 126, 85, 1)" offset="0%"/><stop stop-color="rgba(159, 126, 85, 1)" offset="100%"/></linearGradient></defs><path style="transform:translate(0, 0px); opacity:1" fill="url(#sw-gradient-0)" d="M0,0L34.3,5C68.6,10,137,20,206,40C274.3,60,343,90,411,120C480,150,549,180,617,180C685.7,180,754,150,823,160C891.4,170,960,220,1029,205C1097.1,190,1166,110,1234,90C1302.9,70,1371,110,1440,110C1508.6,110,1577,70,1646,80C1714.3,90,1783,150,1851,190C1920,230,1989,250,2057,260C2125.7,270,2194,270,2263,260C2331.4,250,2400,230,2469,195C2537.1,160,2606,110,2674,90C2742.9,70,2811,80,2880,105C2948.6,130,3017,170,3086,185C3154.3,200,3223,190,3291,170C3360,150,3429,120,3497,100C3565.7,80,3634,70,3703,65C3771.4,60,3840,60,3909,75C3977.1,90,4046,120,4114,120C4182.9,120,4251,90,4320,90C4388.6,90,4457,120,4526,130C4594.3,140,4663,130,4731,140C4800,150,4869,180,4903,195L4937.1,210L4937.1,300L4902.9,300C4868.6,300,4800,300,4731,300C4662.9,300,4594,300,4526,300C4457.1,300,4389,300,4320,300C4251.4,300,4183,300,4114,300C4045.7,300,3977,300,3909,300C3840,300,3771,300,3703,300C3634.3,300,3566,300,3497,300C3428.6,300,3360,300,3291,300C3222.9,300,3154,300,3086,300C3017.1,300,2949,300,2880,300C2811.4,300,2743,300,2674,300C2605.7,300,2537,300,2469,300C2400,300,2331,300,2263,300C2194.3,300,2126,300,2057,300C1988.6,300,1920,300,1851,300C1782.9,300,1714,300,1646,300C1577.1,300,1509,300,1440,300C1371.4,300,1303,300,1234,300C1165.7,300,1097,300,1029,300C960,300,891,300,823,300C754.3,300,686,300,617,300C548.6,300,480,300,411,300C342.9,300,274,300,206,300C137.1,300,69,300,34,300L0,300Z"/><defs><linearGradient id="sw-gradient-1" x1="0" x2="0" y1="1" y2="0"><stop stop-color="rgba(95, 133, 117, 1)" offset="0%"/><stop stop-color="rgba(95, 133, 117, 1)" offset="100%"/></linearGradient></defs><path style="transform:translate(0, 50px); opacity:0.9" fill="url(#sw-gradient-1)" d="M0,0L34.3,25C68.6,50,137,100,206,105C274.3,110,343,70,411,80C480,90,549,150,617,170C685.7,190,754,170,823,170C891.4,170,960,190,1029,190C1097.1,190,1166,170,1234,175C1302.9,180,1371,210,1440,185C1508.6,160,1577,80,1646,65C1714.3,50,1783,100,1851,110C1920,120,1989,90,2057,100C2125.7,110,2194,160,2263,155C2331.4,150,2400,90,2469,95C2537.1,100,2606,170,2674,185C2742.9,200,2811,160,2880,165C2948.6,170,3017,220,3086,245C3154.3,270,3223,270,3291,230C3360,190,3429,110,3497,65C3565.7,20,3634,10,3703,5C3771.4,0,3840,0,3909,20C3977.1,40,4046,80,4114,95C4182.9,110,4251,100,4320,105C4388.6,110,4457,130,4526,125C4594.3,120,4663,90,4731,75C4800,60,4869,60,4903,60L4937.1,60L4937.1,300L4902.9,300C4868.6,300,4800,300,4731,300C4662.9,300,4594,300,4526,300C4457.1,300,4389,300,4320,300C4251.4,300,4183,300,4114,300C4045.7,300,3977,300,3909,300C3840,300,3771,300,3703,300C3634.3,300,3566,300,3497,300C3428.6,300,3360,300,3291,300C3222.9,300,3154,300,3086,300C3017.1,300,2949,300,2880,300C2811.4,300,2743,300,2674,300C2605.7,300,2537,300,2469,300C2400,300,2331,300,2263,300C2194.3,300,2126,300,2057,300C1988.6,300,1920,300,1851,300C1782.9,300,1714,300,1646,300C1577.1,300,1509,300,1440,300C1371.4,300,1303,300,1234,300C1165.7,300,1097,300,1029,300C960,300,891,300,823,300C754.3,300,686,300,617,300C548.6,300,480,300,411,300C342.9,300,274,300,206,300C137.1,300,69,300,34,300L0,300Z"/></svg>