<?xml version="1.0" standalone="no"?>
<svg xmlns:xlink="http://www.w3.org/1999/xlink" id="wave" style="transform:rotate(180deg); transition: 0.3s" viewBox="0 0 1440 380" version="1.1" xmlns="http://www.w3.org/2000/svg"><defs><linearGradient id="sw-gradient-0" x1="0" x2="0" y1="1" y2="0"><stop stop-color="rgba(224, 221, 237, 1)" offset="0%"/><stop stop-color="rgba(224, 221, 237, 1)" offset="100%"/></linearGradient></defs><path style="transform:translate(0, 0px); opacity:1" fill="url(#sw-gradient-0)" d="M0,152L20,183.7C40,215,80,279,120,291.3C160,304,200,266,240,234.3C280,203,320,177,360,139.3C400,101,440,51,480,63.3C520,76,560,152,600,152C640,152,680,76,720,88.7C760,101,800,203,840,240.7C880,279,920,253,960,215.3C1000,177,1040,127,1080,139.3C1120,152,1160,228,1200,215.3C1240,203,1280,101,1320,69.7C1360,38,1400,76,1440,107.7C1480,139,1520,165,1560,158.3C1600,152,1640,114,1680,88.7C1720,63,1760,51,1800,69.7C1840,89,1880,139,1920,164.7C1960,190,2000,190,2040,190C2080,190,2120,190,2160,202.7C2200,215,2240,241,2280,228C2320,215,2360,165,2400,139.3C2440,114,2480,114,2520,152C2560,190,2600,266,2640,291.3C2680,317,2720,291,2760,285C2800,279,2840,291,2860,297.7L2880,304L2880,380L2860,380C2840,380,2800,380,2760,380C2720,380,2680,380,2640,380C2600,380,2560,380,2520,380C2480,380,2440,380,2400,380C2360,380,2320,380,2280,380C2240,380,2200,380,2160,380C2120,380,2080,380,2040,380C2000,380,1960,380,1920,380C1880,380,1840,380,1800,380C1760,380,1720,380,1680,380C1640,380,1600,380,1560,380C1520,380,1480,380,1440,380C1400,380,1360,380,1320,380C1280,380,1240,380,1200,380C1160,380,1120,380,1080,380C1040,380,1000,380,960,380C920,380,880,380,840,380C800,380,760,380,720,380C680,380,640,380,600,380C560,380,520,380,480,380C440,380,400,380,360,380C320,380,280,380,240,380C200,380,160,380,120,380C80,380,40,380,20,380L0,380Z"/><defs><linearGradient id="sw-gradient-1" x1="0" x2="0" y1="1" y2="0"><stop stop-color="rgba(221, 237, 224, 1)" offset="0%"/><stop stop-color="rgba(221, 237, 224, 1)" offset="100%"/></linearGradient></defs><path style="transform:translate(0, 50px); opacity:0.9" fill="url(#sw-gradient-1)" d="M0,114L20,101.3C40,89,80,63,120,95C160,127,200,215,240,228C280,241,320,177,360,158.3C400,139,440,165,480,171C520,177,560,165,600,139.3C640,114,680,76,720,50.7C760,25,800,13,840,50.7C880,89,920,177,960,183.7C1000,190,1040,114,1080,95C1120,76,1160,114,1200,114C1240,114,1280,76,1320,50.7C1360,25,1400,13,1440,38C1480,63,1520,127,1560,139.3C1600,152,1640,114,1680,139.3C1720,165,1760,253,1800,285C1840,317,1880,291,1920,272.3C1960,253,2000,241,2040,221.7C2080,203,2120,177,2160,164.7C2200,152,2240,152,2280,139.3C2320,127,2360,101,2400,107.7C2440,114,2480,152,2520,183.7C2560,215,2600,241,2640,228C2680,215,2720,165,2760,120.3C2800,76,2840,38,2860,19L2880,0L2880,380L2860,380C2840,380,2800,380,2760,380C2720,380,2680,380,2640,380C2600,380,2560,380,2520,380C2480,380,2440,380,2400,380C2360,380,2320,380,2280,380C2240,380,2200,380,2160,380C2120,380,2080,380,2040,380C2000,380,1960,380,1920,380C1880,380,1840,380,1800,380C1760,380,1720,380,1680,380C1640,380,1600,380,1560,380C1520,380,1480,380,1440,380C1400,380,1360,380,1320,380C1280,380,1240,380,1200,380C1160,380,1120,380,1080,380C1040,380,1000,380,960,380C920,380,880,380,840,380C800,380,760,380,720,380C680,380,640,380,600,380C560,380,520,380,480,380C440,380,400,380,360,380C320,380,280,380,240,380C200,380,160,380,120,380C80,380,40,380,20,380L0,380Z"/></svg>